<?xml version="1.0" standalone="no"?>
<!DOCTYPE svg PUBLIC "-//W3C//DTD SVG 20010904//EN"
 "http://www.w3.org/TR/2001/REC-SVG-20010904/DTD/svg10.dtd">
<svg version="1.0" xmlns="http://www.w3.org/2000/svg"
 width="1600.000000pt" height="1600.000000pt" viewBox="0 0 1600.000000 1600.000000"
 preserveAspectRatio="xMidYMid meet">
<metadata>
Created by potrace 1.16, written by Peter Selinger 2001-2019
</metadata>
<g transform="translate(0.000000,1600.000000) scale(0.100000,-0.100000)"
fill="#FFFFFF" stroke="none">
<path d="M5830 13319 c-627 -83 -1243 -263 -1869 -549 -403 -184 -824 -425
-1158 -663 l-141 -101 -80 -131 c-436 -714 -889 -1811 -1208 -2923 -361 -1260
-588 -2573 -694 -4016 l-19 -270 46 -55 c81 -96 383 -391 513 -502 585 -496
1242 -859 2020 -1116 544 -179 1143 -297 1665 -328 l100 -5 270 362 c149 199
270 366 270 370 0 5 -70 35 -155 67 -473 176 -953 420 -1370 696 -401 265
-843 636 -1140 956 -162 175 -165 179 -70 109 127 -94 467 -317 620 -407 1145
-673 2364 -1028 3870 -1129 335 -22 1065 -22 1400 0 1506 101 2725 456 3870
1129 153 90 493 313 620 407 95 70 92 66 -70 -109 -128 -138 -387 -381 -555
-521 -571 -476 -1248 -867 -1955 -1131 -85 -32 -155 -62 -155 -67 0 -4 122
-171 270 -370 l270 -362 100 5 c522 31 1121 149 1665 328 778 257 1435 620
2020 1116 130 111 432 406 513 502 l46 55 -19 270 c-106 1443 -333 2756 -694
4016 -319 1113 -775 2216 -1208 2923 -88 144 -77 134 -318 297 -815 554 -1793
964 -2645 1108 -157 27 -455 64 -460 58 -8 -9 -166 -331 -163 -333 2 -1 59
-17 128 -34 941 -241 1678 -576 2339 -1064 160 -118 641 -518 641 -533 0 -2
-141 66 -312 152 -1470 735 -2490 1026 -3948 1126 -245 17 -1115 17 -1360 0
-919 -63 -1619 -197 -2400 -461 -470 -158 -929 -356 -1547 -665 -172 -86 -313
-155 -313 -153 0 16 398 345 595 492 704 526 1491 891 2395 1110 63 15 116 29
118 30 2 2 -34 77 -80 169 -54 109 -88 166 -98 165 -8 0 -80 -10 -160 -20z
m178 -4674 c415 -79 752 -388 905 -831 60 -174 72 -254 72 -484 -1 -173 -4
-220 -22 -300 -115 -506 -441 -876 -873 -990 -107 -28 -308 -38 -418 -20 -731
118 -1181 982 -925 1775 89 278 269 523 496 679 227 154 514 218 765 171z
m4327 0 c253 -46 467 -168 644 -368 316 -357 426 -870 290 -1352 -118 -418
-418 -748 -790 -868 -116 -38 -212 -50 -356 -44 -153 6 -257 30 -389 92 -353
164 -598 490 -697 925 -30 132 -32 460 -3 595 87 415 337 758 675 925 198 99
422 133 626 95z"/>
</g>
</svg>
