<?xml version="1.0" encoding="utf-8"?>
<!-- Generator: Adobe Illustrator 16.0.2, SVG Export Plug-In . SVG Version: 6.00 Build 0)  -->
<!DOCTYPE svg PUBLIC "-//W3C//DTD SVG 1.1//EN" "http://www.w3.org/Graphics/SVG/1.1/DTD/svg11.dtd">
<svg version="1.1" id="Layer_1" xmlns="http://www.w3.org/2000/svg" xmlns:xlink="http://www.w3.org/1999/xlink" x="0px" y="0px"
	 width="293.061px" height="182px" viewBox="22.5 49 293.061 182" enable-background="new 22.5 49 293.061 182"
	 xml:space="preserve">
<g>
	<g>
		<path fill="#FFFFFF" d="M169,101.008c6.873,0,12.272,5.4,12.272,12.273v6.546c0,6.708-5.399,12.272-12.272,12.272
			c-6.708,0-12.272-5.564-12.272-12.272v-6.546C156.728,106.408,162.289,101.008,169,101.008z"/>
		<path fill="#FFFFFF" d="M215.581,111.324c0-22.851-20.154-41.132-44.834-41.342h-3.17c-24.68,0.209-44.834,18.491-44.834,41.342
			v52.559c0,22.851,20.154,41.133,44.834,41.133h3.17c24.68,0,44.834-18.282,44.834-41.133V111.324z M168.017,215.227
			c-31.419,0-56.947-25.365-56.947-56.945v-41.4c0-31.581,25.527-56.946,56.947-57.108h2.291
			c31.42,0.165,56.946,25.527,56.946,57.108v41.4c0,31.58-25.526,56.945-56.946,56.945H168.017z"/>
		<path fill="#FFFFFF" d="M103.912,219.668"/>
		<path fill="#FFFFFF" d="M281.343,143.173c1.834,1.56,5.199,0.613,7.517-2.112l0,0c2.318-2.726,2.713-6.197,0.881-7.758
			l-33.721-28.687c-1.833-1.559-5.198-0.613-7.517,2.112l0,0c-2.318,2.726-2.713,6.199-0.88,7.758L281.343,143.173z"/>
		<path fill="#FFFFFF" d="M256.108,168.875c-1.826,1.566-5.197,0.635-7.526-2.078l0,0c-2.331-2.716-2.741-6.187-0.916-7.754
			l33.589-28.842c1.826-1.566,5.195-0.637,7.525,2.078l0,0c2.332,2.715,2.742,6.188,0.917,7.754L256.108,168.875z"/>
	</g>
</g>
<path fill="#FFFFFF" d="M54.27,142.661c-1.833,1.56-5.199,0.613-7.516-2.112l0,0c-2.319-2.726-2.713-6.197-0.881-7.758
	l33.721-28.687c1.833-1.559,5.198-0.613,7.516,2.112l0,0c2.319,2.726,2.713,6.199,0.88,7.758L54.27,142.661z"/>
<path fill="#FFFFFF" d="M79.505,168.363c1.826,1.566,5.196,0.635,7.526-2.078l0,0c2.332-2.716,2.742-6.187,0.916-7.754
	l-33.589-28.842c-1.826-1.566-5.195-0.637-7.525,2.079l0,0c-2.332,2.714-2.742,6.187-0.917,7.753L79.505,168.363z"/>
</svg>
